<svg id="Layer_1" data-name="Layer 1" xmlns="http://www.w3.org/2000/svg" viewBox="0 0 1024 1024"><defs><style>.cls-1{fill:#ccd7ee;}.cls-2{fill:#e5ebf6;}.cls-3{fill:#0038a9;}.cls-4{fill:#7f9bd4;}</style></defs><path class="cls-1" d="M742.22,421.09a26.77,26.77,0,0,0-35-14.31c-.71.3-1.4.63-2.08,1A293,293,0,0,0,669.19,430v-4.21a157.15,157.15,0,0,0-314.29,0V430A293,293,0,0,0,319,407.76a26.77,26.77,0,0,0-29,44.75A323.48,323.48,0,0,1,349.23,516a729.06,729.06,0,0,1-13.91,77.33l-21.1,85.85a6.64,6.64,0,0,0,4.87,8,3.58,3.58,0,0,0,.45.09l24.81,4.33a31.18,31.18,0,0,1,21.38,14.65l3,5a44.62,44.62,0,0,0,43,21.28l5.85-.64A31.25,31.25,0,0,1,442.11,740l3.9,3.59a44.5,44.5,0,0,0,48.16,7.94l5.21-2.31a31.38,31.38,0,0,1,25.3,0l5.2,2.31A44.45,44.45,0,0,0,578,743.54L582,740a31.28,31.28,0,0,1,24.54-8.06l5.85.64a44.58,44.58,0,0,0,43-21.29l3-5a31.22,31.22,0,0,1,21.38-14.65l24.82-4.33a6.65,6.65,0,0,0,5.41-7.68c0-.15-.06-.29-.1-.44l-21.08-85.8a727.38,727.38,0,0,1-13.92-77.4,323.46,323.46,0,0,1,59.27-63.45,26.67,26.67,0,0,0,8.1-31.4Z"/><path class="cls-1" d="M742.22,421.09a26.77,26.77,0,0,0-35-14.31c-.71.3-1.4.63-2.08,1A293,293,0,0,0,669.19,430v-4.21a157.15,157.15,0,0,0-314.29,0V430A293,293,0,0,0,319,407.76a26.77,26.77,0,0,0-29,44.75A323.48,323.48,0,0,1,349.23,516a729.06,729.06,0,0,1-13.91,77.33l-21.1,85.85a6.64,6.64,0,0,0,4.87,8,3.58,3.58,0,0,0,.45.09l24.81,4.33a31.18,31.18,0,0,1,21.38,14.65l3,5a44.62,44.62,0,0,0,43,21.28l5.85-.64A31.25,31.25,0,0,1,442.11,740l3.9,3.59a44.5,44.5,0,0,0,48.16,7.94l5.21-2.31a31.38,31.38,0,0,1,25.3,0l5.2,2.31A44.45,44.45,0,0,0,578,743.54L582,740a31.28,31.28,0,0,1,24.54-8.06l5.85.64a44.58,44.58,0,0,0,43-21.29l3-5a31.22,31.22,0,0,1,21.38-14.65l24.82-4.33a6.65,6.65,0,0,0,5.41-7.68c0-.15-.06-.29-.1-.44l-21.08-85.8a727.38,727.38,0,0,1-13.92-77.4,323.46,323.46,0,0,1,59.27-63.45,26.67,26.67,0,0,0,8.1-31.4Z"/><path class="cls-2" d="M533.82,430.17a28,28,0,0,0-43.64,0S506.72,493.1,533.82,430.17Z"/><path class="cls-3" d="M510.49,461.46c-.31,0-.63,0-.94,0C495.09,460.34,487.76,434,487,431l-.4-1.53.93-1.27a31.35,31.35,0,0,1,49,0l1.12,1.53-.75,1.74C528.19,451.63,519.55,461.46,510.49,461.46ZM493.87,431a82,82,0,0,0,4.45,11.46c3.76,7.7,7.92,12.1,11.72,12.38,3.37.25,10.35-2.6,19.9-24.05a24.76,24.76,0,0,0-36.07.21Z"/><circle class="cls-3" cx="432.32" cy="393.65" r="7.59"/><circle class="cls-3" cx="591.68" cy="393.65" r="7.59"/><path class="cls-2" d="M290.36,429.69c6.94-13.06,23.57-14.86,36.63-7.93,12.49,6.55,24.73,15.59,36.15,23.87l-.24-5.81A157.16,157.16,0,0,1,652.36,355,157.16,157.16,0,0,0,354.9,425.82V430A293,293,0,0,0,319,407.76a26.77,26.77,0,0,0-30.72,43.31C287,445.06,287.3,435.46,290.36,429.69Z"/><path class="cls-2" d="M343.32,607.29c6-25.51,10.67-59.8,13.91-85.81-2.7-3.81-5.5-7.56-8.36-11.25-3.23,25.08-7.74,58.45-13.55,83.06l-21.1,85.85a6.64,6.64,0,0,0,4.87,8,3.58,3.58,0,0,0,.45.09l4,.69Z"/><path class="cls-4" d="M344.9,424v-.93q-8-5.31-16.35-10.09Q336.91,418.25,344.9,424Z"/><path class="cls-4" d="M334.35,685.59l-20.17-3.52a6.64,6.64,0,0,0,4.91,5.1,3.58,3.58,0,0,0,.45.09l24.81,4.33a32.09,32.09,0,0,1,5.42,1.46A31.24,31.24,0,0,0,334.35,685.59Z"/><path class="cls-4" d="M742.22,421.09h0a26.69,26.69,0,0,0-16.22-15,26.64,26.64,0,0,1,6.22,9h0a26.67,26.67,0,0,1-8.1,31.4,323.18,323.18,0,0,0-59.27,63.45,727.38,727.38,0,0,0,13.92,77.4l21.08,85.8c0,.15.07.29.1.44a6.65,6.65,0,0,1-5.41,7.68l-24.82,4.33a31.22,31.22,0,0,0-21.38,14.65l-3,5a44.58,44.58,0,0,1-43,21.29l-5.85-.64A31.28,31.28,0,0,0,572,734L568,737.54a44.45,44.45,0,0,1-48.16,7.94l-5.2-2.31a31.38,31.38,0,0,0-25.3,0l-5.21,2.31a44.49,44.49,0,0,1-35.72.14,44.5,44.5,0,0,0,45.72,5.86l5.21-2.31a31.38,31.38,0,0,1,25.3,0l5.2,2.31A44.45,44.45,0,0,0,578,743.54L582,740a31.28,31.28,0,0,1,24.54-8.06l5.85.64a44.58,44.58,0,0,0,43-21.29l3-5a31.22,31.22,0,0,1,21.38-14.65l24.82-4.33a6.65,6.65,0,0,0,5.41-7.68c0-.15-.06-.29-.1-.44l-21.08-85.8a727.38,727.38,0,0,1-13.92-77.4,323.18,323.18,0,0,1,59.27-63.45A26.67,26.67,0,0,0,742.22,421.09Z"/><path class="cls-4" d="M407.57,725.89l-5.85.64a44.58,44.58,0,0,1-22.56-3.45,44.58,44.58,0,0,0,32.56,9.45l5.85-.64a31.24,31.24,0,0,1,14.19,1.75A31.28,31.28,0,0,0,407.57,725.89Z"/><path class="cls-3" d="M547.92,758.62a47.64,47.64,0,0,1-19.38-4.11l-5.21-2.3a28.07,28.07,0,0,0-22.61,0l-5.2,2.3A47.76,47.76,0,0,1,443.77,746l-3.91-3.59a27.9,27.9,0,0,0-21.93-7.2l-5.85.64A48.11,48.11,0,0,1,365.91,713l-3-5a27.88,27.88,0,0,0-19.11-13.09L319,690.53a5.32,5.32,0,0,1-.67-.14,10,10,0,0,1-7.3-12l21.1-85.85a729.94,729.94,0,0,0,13.67-75.67,320.25,320.25,0,0,0-57.91-61.75,30.09,30.09,0,0,1,32.69-50.25,298.34,298.34,0,0,1,31.05,18.79c1.19-87.44,72.7-158.23,160.42-158.24h0A160.46,160.46,0,0,1,672.49,423.62a299.39,299.39,0,0,1,31.07-18.8c.76-.39,1.54-.77,2.33-1.1a30.07,30.07,0,0,1,39.38,16.07h0a30.06,30.06,0,0,1-9.1,35.32,319.63,319.63,0,0,0-57.87,61.71A731,731,0,0,0,692,592.58l21.08,85.77c0,.22.1.43.14.65a10,10,0,0,1-8.11,11.53l-24.82,4.33A27.88,27.88,0,0,0,661.19,708l-3,5A48.09,48.09,0,0,1,612,735.83l-5.85-.65a28.06,28.06,0,0,0-21.94,7.21l-3.9,3.59A47.71,47.71,0,0,1,547.92,758.62ZM512,743.2a34.7,34.7,0,0,1,14,2.93l5.21,2.31a41.12,41.12,0,0,0,44.56-7.34l3.91-3.6a34.64,34.64,0,0,1,27.15-8.92l5.85.65a41.43,41.43,0,0,0,39.77-19.7l3-5a34.55,34.55,0,0,1,23.65-16.2L704,684a3.32,3.32,0,0,0,2.71-3.84,2.25,2.25,0,0,0,0-.22l-21.08-85.79a736.87,736.87,0,0,1-14-77.78l-.16-1.28.75-1.06A326.87,326.87,0,0,1,732,449.92a23.41,23.41,0,0,0,7.14-27.54h0a23.44,23.44,0,0,0-30.69-12.53c-.62.26-1.23.55-1.83.86a291.9,291.9,0,0,0-35.5,22l-5.27,3.82V425.82A153.83,153.83,0,0,0,512,272h0c-84.79,0-153.78,69-153.8,153.8v10.71L353,432.71a290.59,290.59,0,0,0-35.5-22A23.45,23.45,0,0,0,292,449.89,326.78,326.78,0,0,1,351.94,514l.74,1.05-.16,1.28a732.19,732.19,0,0,1-14,77.68l-21.1,85.88a3.3,3.3,0,0,0,2.43,4l.21,0,24.83,4.33a34.55,34.55,0,0,1,23.66,16.2l3,5a41.49,41.49,0,0,0,39.77,19.69l5.85-.65a34.65,34.65,0,0,1,27.15,8.92l3.9,3.59a41.14,41.14,0,0,0,44.57,7.35l5.21-2.3A34.67,34.67,0,0,1,512,743.2Z"/><path class="cls-1" d="M319.5,250.16H302v-17.5a3.5,3.5,0,1,0-7,0v17.5H277.5a3.5,3.5,0,1,0,0,7H295v17.5a3.5,3.5,0,1,0,7,0v-17.5h17.5a3.5,3.5,0,1,0,0-7Z"/><path class="cls-1" d="M201.5,413.91H177.75V390.16a4.75,4.75,0,0,0-9.5,0v23.75H144.5a4.75,4.75,0,0,0,0,9.5h23.75v23.75a4.75,4.75,0,1,0,9.5,0V423.41H201.5a4.75,4.75,0,1,0,0-9.5Z"/><path class="cls-1" d="M902,274.7H884.67V257.41a3.46,3.46,0,1,0-6.92,0V274.7H860.46a3.46,3.46,0,0,0,0,6.92h17.29v17.29a3.46,3.46,0,1,0,6.92,0V281.62H902a3.46,3.46,0,0,0,0-6.92Z"/><circle class="cls-1" cx="841" cy="401.65" r="8"/><path class="cls-1" d="M244,568.16a8,8,0,1,1-8,8,8,8,0,0,1,8-8m0-4a12,12,0,1,0,12,12,12,12,0,0,0-12-12Z"/><path class="cls-1" d="M857,576a8,8,0,1,1-8,8,8,8,0,0,1,8-8m0-4a12,12,0,1,0,12,12,12,12,0,0,0-12-12Z"/><path class="cls-1" d="M165,258.16a8,8,0,1,1-8,8,8,8,0,0,1,8-8m0-4a12,12,0,1,0,12,12,12,12,0,0,0-12-12Z"/><circle class="cls-1" cx="398" cy="189.16" r="8"/><path class="cls-1" d="M749.5,207.16a12.5,12.5,0,1,1-12.5,12.5,12.5,12.5,0,0,1,12.5-12.5m0-5a17.5,17.5,0,1,0,17.5,17.5,17.52,17.52,0,0,0-17.5-17.5Z"/><circle class="cls-1" cx="97.5" cy="681.66" r="12.5"/><circle class="cls-1" cx="926.5" cy="498.5" r="12.5"/></svg>