<svg id="Layer_1" data-name="Layer 1" xmlns="http://www.w3.org/2000/svg" viewBox="0 0 1024 1024"><defs><style>.cls-1{fill:#0038a9;}.cls-2{fill:#7f9bd4;}.cls-3{fill:#ccd7ee;}.cls-4{fill:#e5ebf6;}</style></defs><path class="cls-1" d="M658.23,498.12c0,68.29-68.7,98.33-153.43,98.33s-227.3-33.8-227.3-90.08S365,374.47,482.28,374.47s176,55.36,176,123.65Z"/><path class="cls-2" d="M655.3,521.21a89.13,89.13,0,0,0,2.93-23.09c0-68.29-58.68-123.65-176-123.65S277.5,450.09,277.5,506.37C389.37,557.89,538,568.21,655.3,521.21Z"/><path class="cls-3" d="M342.55,530.51C334.06,488,348,428,378.49,395.55c-61.49,26.47-101,73-101,110.82h0A467.7,467.7,0,0,0,342.55,530.51Z"/><path class="cls-3" d="M504.17,551.11c-41.59-79.44,29-140.79,83.11-156.56C564.38,383.86,536,376.94,502,375c-84.75,38.24-94.83,134.48-69.06,173.26A524.9,524.9,0,0,0,504.17,551.11Z"/><path class="cls-1" d="M630.72,644.5a10,10,0,0,1-9.4-6.6l-23.74-65.73-20.9-4.51a10,10,0,0,1,4.21-19.55L612.63,555l27.5,76.14a10,10,0,0,1-9.41,13.4Z"/><path class="cls-2" d="M621.85,417c17.52,20.08,26.3,44.54,26.3,70.93,0,68.29-68.7,98.32-153.43,98.32-65.62,0-165.92-20.26-207.83-55.54,33.09,41.54,146.2,65.74,217.91,65.74,84.73,0,153.43-30,153.43-98.32C658.23,467.08,646.1,438.71,621.85,417Z"/><path class="cls-1" d="M439.69,662.41c-.27,0-.53,0-.8,0a10,10,0,0,1-9.18-10.76l5.49-69.79,31-25.45a10,10,0,1,1,12.69,15.47l-24.43,20-4.83,61.3A10,10,0,0,1,439.69,662.41Z"/><path class="cls-1" d="M522,662.41a10,10,0,0,1-10-10v-63c0-5,2.94-7.62,8.27-12.48,2.72-2.48,6.49-5.8,11.2-9.86,8-6.87,16-13.64,16.11-13.71a10,10,0,0,1,12.85,15.33C549.56,577.77,537,588.58,532,593.26v59.15A10,10,0,0,1,522,662.41Zm8-67.19Z"/><path class="cls-4" d="M492.36,380c45.21,0,81.7,8.23,109.49,22.26-28.82-17.39-68.67-27.83-119.57-27.83-117.26,0-204.78,75.62-204.78,131.9,3.24.95,6.64,1.9,10.15,2.85C290.39,453.26,377,380,492.36,380Z"/><path class="cls-1" d="M615.4,409.16c-31.4-24-77.43-36.61-133.12-36.61-54,0-106.42,16.05-147.48,45.2-37.08,26.33-59.22,59.46-59.22,88.62,0,34.9,52.12,57.56,83.18,68,43.59,14.59,100.92,24,146,24,44.65,0,82.49-8.24,109.45-23.81,30.46-17.6,45.9-43.32,45.9-76.44C660.15,462.26,644.67,431.5,615.4,409.16ZM504.8,594.52c-44.74,0-101.59-9.35-144.82-23.83-14.39-4.82-35.06-12.88-51.76-23.91-19.11-12.62-28.8-26.21-28.8-40.41,0-27.5,22.08-60.26,57.61-85.48,40.41-28.69,92-44.49,145.25-44.49,54.84,0,100.07,12.38,130.78,35.82,28.29,21.58,43.25,51.29,43.25,85.9,0,31.65-14.8,56.24-44,73.11C586,586.47,548.77,594.52,504.8,594.52Z"/><path class="cls-3" d="M781.17,503.64c0,45.16-53.28,76.62-119,76.62s-119-31.46-119-76.62,53.28-81.79,119-81.79S781.17,458.47,781.17,503.64Z"/><path class="cls-1" d="M690.41,537.82a3.46,3.46,0,0,1-2.82-1.43,26.05,26.05,0,0,0-40.36,0,3.5,3.5,0,0,1-5.64-4.15,33,33,0,0,1,51.64,0,3.5,3.5,0,0,1-.75,4.9A3.55,3.55,0,0,1,690.41,537.82Z"/><circle class="cls-1" cx="583.41" cy="495.82" r="8"/><circle class="cls-1" cx="751.41" cy="495.82" r="8"/><path class="cls-4" d="M554.17,507.64c0-45.17,53.28-81.79,119-81.79a165.09,165.09,0,0,1,50,7.56,161.12,161.12,0,0,0-61-11.56c-65.72,0-119,36.62-119,81.79,0,31.52,26,56.37,64,68.5C575.22,559,554.17,536,554.17,507.64Z"/><path class="cls-2" d="M712.18,429.41c34.73,14.28,58,40.39,58,70.23,0,45.16-53.28,76.62-119,76.62a181.91,181.91,0,0,1-55-8.12c18.89,7.78,41.58,12.12,66,12.12,65.72,0,119-31.46,119-76.62C781.17,470.75,752.91,442.4,712.18,429.41Z"/><path class="cls-1" d="M662.17,419.85c-66.72,0-121,37.59-121,83.79,0,22.24,12.71,42.46,35.79,56.94,22.29,14,52.55,21.68,85.21,21.68s62.92-7.7,85.21-21.68c23.08-14.48,35.79-34.7,35.79-56.94C783.17,457.44,728.89,419.85,662.17,419.85Zm0,4c64.51,0,117,35.79,117,79.79,0,42.54-50.3,74.62-117,74.62s-117-32.08-117-74.62C545.17,459.64,597.66,423.85,662.17,423.85Z"/><path class="cls-1" d="M633.17,440.05a5,5,0,0,1-4.86-3.86c-3.72-15.89-5.21-38.84,8.78-58a52.83,52.83,0,0,1,19.11-16.4,5,5,0,0,1,4.07,9.14h0c-1.36.61-33.27,15.71-22.23,62.94a5,5,0,0,1-3.73,6A4.92,4.92,0,0,1,633.17,440.05Z"/><path class="cls-1" d="M707.78,440.05a5,5,0,0,1-4.86-3.86c-3.72-15.89-5.21-38.84,8.78-58a52.83,52.83,0,0,1,19.11-16.4,5,5,0,0,1,4.07,9.14h0c-1.36.61-33.27,15.71-22.23,62.94a5,5,0,0,1-3.73,6A4.92,4.92,0,0,1,707.78,440.05Z"/><path class="cls-3" d="M319.5,250.16H302v-17.5a3.5,3.5,0,1,0-7,0v17.5H277.5a3.5,3.5,0,1,0,0,7H295v17.5a3.5,3.5,0,1,0,7,0v-17.5h17.5a3.5,3.5,0,1,0,0-7Z"/><path class="cls-3" d="M167,398.22H143.25V374.47a4.75,4.75,0,0,0-9.5,0v23.75H110a4.75,4.75,0,0,0,0,9.5h23.75v23.75a4.75,4.75,0,0,0,9.5,0V407.72H167a4.75,4.75,0,0,0,0-9.5Z"/><path class="cls-3" d="M206.5,598.43a8,8,0,1,1-8,8,8,8,0,0,1,8-8m0-4a12,12,0,1,0,12,12,12,12,0,0,0-12-12Z"/><path class="cls-3" d="M857,576a8,8,0,1,1-8,8,8,8,0,0,1,8-8m0-4a12,12,0,1,0,12,12,12,12,0,0,0-12-12Z"/><path class="cls-3" d="M165,258.16a8,8,0,1,1-8,8,8,8,0,0,1,8-8m0-4a12,12,0,1,0,12,12,12,12,0,0,0-12-12Z"/><circle class="cls-3" cx="398" cy="189.16" r="8"/><path class="cls-3" d="M762,197.16a12.5,12.5,0,1,1-12.5,12.5,12.5,12.5,0,0,1,12.5-12.5m0-5a17.5,17.5,0,1,0,17.5,17.5,17.52,17.52,0,0,0-17.5-17.5Z"/><path class="cls-3" d="M906,238.49H895.17V227.66a2.17,2.17,0,1,0-4.34,0v10.83H880a2.17,2.17,0,1,0,0,4.34h10.83v10.83a2.17,2.17,0,1,0,4.34,0V242.83H906a2.17,2.17,0,0,0,0-4.34Z"/><circle class="cls-3" cx="97.5" cy="681.66" r="12.5"/><circle class="cls-3" cx="926.5" cy="498.5" r="12.5"/><path class="cls-3" d="M903.38,348l-6.19-1.35a34,34,0,0,0-2-4.8l3.43-5.33a2.42,2.42,0,0,0-.33-3l-9.64-9.64a2.41,2.41,0,0,0-3-.32l-5.33,3.42a34.66,34.66,0,0,0-4.8-2l-1.35-6.19a2.41,2.41,0,0,0-2.35-1.9H858.18a2.41,2.41,0,0,0-2.35,1.9l-1.35,6.19a34.66,34.66,0,0,0-4.8,2l-5.33-3.42a2.41,2.41,0,0,0-3,.32l-9.64,9.64a2.42,2.42,0,0,0-.33,3l3.43,5.33a34,34,0,0,0-2,4.8L826.62,348a2.41,2.41,0,0,0-1.9,2.35V364a2.41,2.41,0,0,0,1.9,2.35l6.19,1.35a33,33,0,0,0,2,4.8l-3.43,5.34a2.41,2.41,0,0,0,.33,3l9.64,9.64a2.41,2.41,0,0,0,3,.33l5.33-3.43a33.48,33.48,0,0,0,4.8,2l1.35,6.19a2.41,2.41,0,0,0,2.35,1.9h13.64a2.41,2.41,0,0,0,2.35-1.9l1.35-6.19a33.48,33.48,0,0,0,4.8-2l5.33,3.43a2.41,2.41,0,0,0,3-.33l9.64-9.64a2.41,2.41,0,0,0,.33-3l-3.43-5.34a33,33,0,0,0,2-4.8l6.19-1.35a2.41,2.41,0,0,0,1.9-2.35V350.31A2.41,2.41,0,0,0,903.38,348Zm-23.94,9.17A14.44,14.44,0,1,1,865,342.69,14.45,14.45,0,0,1,879.44,357.13Z"/></svg>