<svg id="Layer_1" data-name="Layer 1" xmlns="http://www.w3.org/2000/svg" viewBox="0 0 1024 1024"><defs><style>.cls-1{fill:#ccd7ee;}.cls-2{fill:#0038a9;}.cls-3{fill:#e5ebf6;}.cls-4{fill:#7f9bd4;}</style></defs><path class="cls-1" d="M319.5,250.16H302v-17.5a3.5,3.5,0,1,0-7,0v17.5H277.5a3.5,3.5,0,1,0,0,7H295v17.5a3.5,3.5,0,1,0,7,0v-17.5h17.5a3.5,3.5,0,1,0,0-7Z"/><path class="cls-1" d="M201.5,413.91H177.75V390.16a4.75,4.75,0,0,0-9.5,0v23.75H144.5a4.75,4.75,0,0,0,0,9.5h23.75v23.75a4.75,4.75,0,1,0,9.5,0V423.41H201.5a4.75,4.75,0,1,0,0-9.5Z"/><path class="cls-1" d="M839,374.45H821.71V357.16a3.46,3.46,0,0,0-6.92,0v17.29H797.5a3.46,3.46,0,0,0,0,6.92h17.29v17.29a3.46,3.46,0,0,0,6.92,0V381.37H839a3.46,3.46,0,1,0,0-6.92Z"/><circle class="cls-1" cx="737" cy="331.16" r="8"/><path class="cls-1" d="M244,568.16a8,8,0,1,1-8,8,8,8,0,0,1,8-8m0-4a12,12,0,1,0,12,12,12,12,0,0,0-12-12Z"/><path class="cls-1" d="M857,576a8,8,0,1,1-8,8,8,8,0,0,1,8-8m0-4a12,12,0,1,0,12,12,12,12,0,0,0-12-12Z"/><path class="cls-1" d="M165,258.16a8,8,0,1,1-8,8,8,8,0,0,1,8-8m0-4a12,12,0,1,0,12,12,12,12,0,0,0-12-12Z"/><circle class="cls-1" cx="398" cy="189.16" r="8"/><path class="cls-1" d="M749.5,207.16a12.5,12.5,0,1,1-12.5,12.5,12.5,12.5,0,0,1,12.5-12.5m0-5a17.5,17.5,0,1,0,17.5,17.5,17.52,17.52,0,0,0-17.5-17.5Z"/><circle class="cls-1" cx="97.5" cy="681.66" r="12.5"/><circle class="cls-1" cx="926.5" cy="498.5" r="12.5"/><path class="cls-1" d="M648,744H376a48,48,0,0,1-48-48h0V328a48,48,0,0,1,48-48H600l96,96V696a48,48,0,0,1-48,48Z"/><path class="cls-2" d="M537.1,502.32a3.52,3.52,0,0,1-2.83-1.43,26.05,26.05,0,0,0-40.36,0,3.5,3.5,0,0,1-5.64-4.15,33,33,0,0,1,51.65,0,3.49,3.49,0,0,1-2.82,5.57Z"/><circle class="cls-2" cx="430.1" cy="460.32" r="8"/><circle class="cls-2" cx="598.1" cy="460.32" r="8"/><path class="cls-3" d="M350,696V328a48,48,0,0,1,48-48H376a48,48,0,0,0-48,48V696a48,48,0,0,0,48,48h22A48,48,0,0,1,350,696Z"/><path class="cls-4" d="M600,280h.1L674,376V696a48,48,0,0,1-48,48h22a48,48,0,0,0,48-48V376Z"/><path class="cls-2" d="M648,746.5H376A50.55,50.55,0,0,1,325.5,696V328A50.55,50.55,0,0,1,376,277.5H601L698.5,375V696A50.55,50.55,0,0,1,648,746.5Zm-272-464A45.55,45.55,0,0,0,330.5,328V696A45.55,45.55,0,0,0,376,741.5H648A45.55,45.55,0,0,0,693.5,696V377L599,282.5Z"/><path class="cls-2" d="M696,376H648a48,48,0,0,1-48-48V280Z"/></svg>